<svg xmlns="http://www.w3.org/2000/svg" viewBox="0 0 1290 1244"><defs><style>.sun-1{fill:#fbbc3d}.sun-2{fill:#fbc36a}.sun-3{fill:#f9b03d}</style></defs><g class="sun"><path class="sun-1" d="M629.83 1194.59c-288.45 0-523.12-234.67-523.12-523.12s234.67-523.12 523.12-523.12S1153 383 1153 671.47s-234.72 523.12-523.17 523.12zm0-1041c-285.58 0-517.92 232.34-517.92 517.92s232.34 517.92 517.92 517.92 517.92-232.34 517.92-517.92-232.34-517.96-517.92-517.96z"/><path class="sun-1" d="M629.83 1090.49c-231.05 0-419-188-419-419s188-419 419-419 419 188 419 419-187.95 419-419 419zm0-832.83C401.65 257.66 216 443.29 216 671.47s185.63 413.81 413.81 413.81 413.81-185.63 413.81-413.81S858 257.66 629.83 257.66z"/><path class="sun-2" d="M694.89 1046.24c-231 0-419-188-419-419s188-419 419-419 419 188 419 419-187.95 419-419 419zm0-832.83c-228.18 0-413.81 185.64-413.81 413.82S466.71 1041 694.89 1041s413.82-185.63 413.82-413.81-185.64-413.78-413.82-413.78z"/><path class="sun-3" d="M648.05 1035.83c-231 0-419-188-419-419s188-419 419-419 419 188 419 419-187.96 419-419 419zm0-832.83c-228.18 0-413.82 185.64-413.82 413.82s185.64 413.81 413.82 413.81S1061.86 845 1061.86 616.82 876.23 203 648.05 203z"/><path class="sun-2" d="M637.64 1072.27c-231 0-419-188-419-419s188-419 419-419 419 188 419 419-187.96 419-419 419zm0-832.83c-228.18 0-413.82 185.63-413.82 413.81s185.64 413.81 413.82 413.81 413.81-185.63 413.81-413.81-185.63-413.81-413.81-413.81z"/><path class="sun-2" d="M585.58 1093.09c-231 0-419-188-419-419s188-419 419-419 419 188 419 419-187.95 419-419 419zm0-832.83c-228.18 0-413.81 185.64-413.81 413.81s185.63 413.82 413.81 413.82S999.4 902.25 999.4 674.07 813.76 260.26 585.58 260.26z"/><path class="sun-1" d="M622 1015c-202.35 0-367-164.62-367-367s164.62-367 367-367 367 164.62 367 367-164.63 367-367 367zm0-728.72c-199.47 0-361.76 162.28-361.76 361.76S422.55 1009.81 622 1009.81s361.78-162.29 361.78-361.76S821.5 286.29 622 286.29z"/><path class="sun-2" d="M585.58 1223.22c-288.45 0-523.12-234.67-523.12-523.12S297.13 177 585.58 177s523.13 234.67 523.13 523.12-234.71 523.1-523.13 523.1zm0-1041C300 182.18 67.67 414.52 67.67 700.1S300 1218 585.58 1218s517.92-232.32 517.92-517.9-232.34-517.92-517.92-517.92z"/><path class="sun-3" d="M642.84 1244c-288.45 0-523.12-234.67-523.12-523.12S354.39 197.8 642.84 197.8 1166 432.47 1166 720.92 931.29 1244 642.84 1244zm0-1041c-285.58 0-517.92 232.34-517.92 517.92s232.34 517.92 517.92 517.92 517.92-232.34 517.92-517.92S928.42 203 642.84 203z"/><path class="sun-3" d="M611.61 1139.94c-288.45 0-523.12-234.67-523.12-523.12S323.16 93.69 611.61 93.69s523.12 234.67 523.12 523.13-234.67 523.12-523.12 523.12zm0-1041C326 98.9 93.69 331.24 93.69 616.82S326 1134.73 611.61 1134.73s517.92-232.34 517.92-517.91S897.19 98.9 611.61 98.9z"/><path class="sun-1" d="M616.82 1166c-288.46 0-523.13-234.71-523.13-523.16s234.67-523.12 523.13-523.12 523.12 234.67 523.12 523.12S905.27 1166 616.82 1166zm0-1041C331.24 124.92 98.9 357.26 98.9 642.84s232.34 517.92 517.92 517.92 517.91-232.34 517.91-517.92-232.34-517.92-517.91-517.92z"/><path class="sun-1" d="M689.69 1212.81c-288.45 0-523.12-234.67-523.12-523.12s234.67-523.12 523.12-523.12 523.12 234.67 523.12 523.12-234.67 523.12-523.12 523.12zm0-1041c-285.58 0-517.92 232.34-517.92 517.92s232.34 517.92 517.92 517.92 517.92-232.34 517.92-517.92-232.34-517.96-517.92-517.96z"/><path class="sun-2" d="M668.87 1171.17c-288.45 0-523.12-234.67-523.12-523.12s234.67-523.13 523.12-523.13S1192 359.6 1192 648.05s-234.68 523.12-523.13 523.12zm0-1041C383.29 130.13 151 362.47 151 648.05S383.29 1166 668.87 1166s517.91-232.33 517.91-517.91-232.33-517.96-517.91-517.96z"/></g><g fill="#f59c00"><circle class="cls-4" cx="307.11" cy="114.51" r="31.23"/><circle class="cls-4" cx="1264.86" cy="780.78" r="26.03"/><circle class="cls-4" cx="1025.42" cy="1155.55" r="18.22"/><circle class="cls-4" cx="218.62" cy="1145.14" r="20.82"/><circle class="cls-4" cx="15.62" cy="749.55" r="15.62"/><circle class="cls-4" cx="46.85" cy="1035.83" r="10.41"/><circle class="cls-4" cx="1238.84" cy="1041.04" r="10.41"/><circle class="cls-4" cx="791.19" cy="67.67" r="18.22"/><circle class="cls-4" cx="564.76" cy="13.01" r="13.01"/></g></svg>