<svg xmlns="http://www.w3.org/2000/svg" viewBox="0 0 1660 2000">
    <defs>
        <style>
            .text { fill:#333 }
            .satellite { fill:#f59c00 }
            .sun-1 { fill:#fbbc3d }
            .sun-2 { fill:#fbc36a }
            .sun-3 { fill:#f9b03d }
        </style>
    </defs>
    <title>Distant Sun Counselling</title>
    <g class="text">
        <path d="M1,1548H47.65q34.6,0,53.35,18.74t18.73,53.55q0,34.82-18.84,53.75T47.65,1693H1Zm46,134q29.52,0,44.38-15.57t14.87-46.12Q106.29,1559,47,1559H13.64v123Z"/>
        <path d="M188.14,1693V1548h12.62v145Z"/>
        <path d="M289.64,1690a63.54,63.54,0,0,1-23.31-14.36l5.29-10q10.78,9.57,21.89,13.64t26.37,4.08q18.31,0,28.5-7.54t10.19-21.17a17.48,17.48,0,0,0-5-12.93A34.6,34.6,0,0,0,341,1633.9a161.76,161.76,0,0,0-20.26-5.7,199,199,0,0,1-27.18-7.64,44.24,44.24,0,0,1-17.61-11.91q-7.14-7.94-7.13-21.18a37.7,37.7,0,0,1,6.31-21.58q6.32-9.36,18-14.46t27.18-5.09a77,77,0,0,1,27.49,4.79,59.68,59.68,0,0,1,21.79,14.15l-5.29,10a71.27,71.27,0,0,0-20.77-13.44,61.47,61.47,0,0,0-23.22-4.28q-18.31,0-28.6,7.94t-10.28,21.79q0,12,9,17.92t26.27,10l5.91,1.42a211.58,211.58,0,0,1,25.85,7.54,42.11,42.11,0,0,1,16.29,11q6.72,7.34,6.72,19.55a35.6,35.6,0,0,1-6.31,20.87q-6.31,9.06-18,14t-27.18,5Q302.78,1694.58,289.64,1690Z"/>
        <path d="M468.92,1693V1559H417v-11H533.47v11H481.55v134Z"/>
        <path d="M685.77,1693l-16.49-38.69H591.09L574.4,1693h-13l63.12-145h11.41l62.92,145Zm-90-49.69h68.61l-34.2-80Z"/>
        <path d="M861.28,1548h11.81v145h-9.77l-92-123.6V1693h-11.8V1548h10l91.83,123.6Z"/>
        <path d="M982.84,1693V1559H930.92v-11h116.47v11H995.47v134Z"/>
        <path d="M1208.55,1690a63.58,63.58,0,0,1-23.32-14.36l5.29-10q10.8,9.57,21.89,13.64t26.37,4.08q18.33,0,28.51-7.54t10.18-21.17a17.52,17.52,0,0,0-5-12.93,34.68,34.68,0,0,0-12.62-7.84,162.48,162.48,0,0,0-20.27-5.7,199,199,0,0,1-27.18-7.64,44.31,44.31,0,0,1-17.61-11.91q-7.12-7.94-7.12-21.18a37.7,37.7,0,0,1,6.31-21.58q6.3-9.36,18-14.46t27.18-5.09a76.87,76.87,0,0,1,27.48,4.79,59.68,59.68,0,0,1,21.79,14.15l-5.29,10a71.13,71.13,0,0,0-20.77-13.44,61.46,61.46,0,0,0-23.21-4.28q-18.33,0-28.61,7.94t-10.28,21.79q0,12,9,17.92t26.26,10l5.91,1.42a212.36,212.36,0,0,1,25.86,7.54,42.26,42.26,0,0,1,16.29,11q6.7,7.34,6.72,19.55a35.6,35.6,0,0,1-6.32,20.87q-6.3,9.06-18,14t-27.19,5Q1221.68,1694.58,1208.55,1690Z"/>
        <path d="M1368.59,1680q-14.37-14.57-14.36-42.86V1548h12.62v90.61q0,44.81,43.78,44.8,21.38,0,32.48-11.3t11.1-33.5V1548h12.42v89.19q0,28.29-14.26,42.86t-41.74,14.56Q1382.94,1694.58,1368.59,1680Z"/>
        <path d="M1641.53,1548h11.81v145h-9.77l-92-123.6V1693h-11.81V1548h10l91.83,123.6Z"/>
        <path d="M30.75,1991.14q-14.88-8.85-22.81-25.65T0,1925.68q0-22.8,7.94-39.5a57.65,57.65,0,0,1,22.81-25.55q14.85-8.87,35-8.86a77,77,0,0,1,27.59,4.78A59.73,59.73,0,0,1,115,1870.71l-5.29,10A71.21,71.21,0,0,0,89,1867.14,61.82,61.82,0,0,0,65.77,1863q-25,0-38.9,16.4T13,1925.68q0,30.13,13.74,46.63t39,16.49A61.62,61.62,0,0,0,89,1984.62q10.38-4.15,20.77-13.54l5.29,10a59.58,59.58,0,0,1-21.68,14.15A76.74,76.74,0,0,1,65.77,2000Q45.61,2000,30.75,1991.14Z"/>
        <path d="M196,1991q-14.56-9-22.4-25.66t-7.84-39.5q0-22.8,7.74-39.5t22.29-25.65q14.55-9,34.51-9t34.62,9a57.74,57.74,0,0,1,22.4,25.55q7.72,16.6,7.73,39.4t-7.83,39.6q-7.84,16.8-22.4,25.76t-34.52,9Q210.54,2000,196,1991Zm72.28-18.73q13.53-16.5,13.54-46.63t-13.44-46.43Q254.92,1863,230.28,1863q-24.43,0-38,16.4t-13.54,46.32q0,29.92,13.54,46.53t38,16.59Q254.73,1988.8,268.26,1972.31Z"/>
        <path d="M368.85,1985.44q-14.36-14.55-14.36-42.86V1853.4h12.63V1944q0,44.8,43.77,44.8,21.39,0,32.48-11.3t11.1-33.5v-90.6h12.42v89.18q0,28.31-14.26,42.86T410.89,2000Q383.2,2000,368.85,1985.44Z"/>
        <path d="M633.65,1853.4h11.8v145h-9.77l-92-123.59v123.59H531.84v-145h10L633.65,1977Z"/>
        <path d="M726.19,1995.42a63.52,63.52,0,0,1-23.32-14.36l5.3-10a69.21,69.21,0,0,0,21.89,13.65q11.1,4.08,26.37,4.07,18.32,0,28.5-7.53t10.18-21.18c0-5.3-1.66-9.6-5-12.93a34.87,34.87,0,0,0-12.62-7.84,163.5,163.5,0,0,0-20.26-5.7,200.6,200.6,0,0,1-27.18-7.63,44.45,44.45,0,0,1-17.62-11.91q-7.12-7.95-7.12-21.18a37.71,37.71,0,0,1,6.31-21.59,40.53,40.53,0,0,1,18-14.45q11.72-5.08,27.18-5.09a77.18,77.18,0,0,1,27.49,4.78,59.57,59.57,0,0,1,21.79,14.16l-5.3,10a71.09,71.09,0,0,0-20.76-13.44,61.47,61.47,0,0,0-23.22-4.28q-18.32,0-28.6,8t-10.29,21.78q0,12,9,17.92t26.27,10l5.9,1.42a214.92,214.92,0,0,1,25.86,7.54,42.29,42.29,0,0,1,16.29,11q6.72,7.34,6.72,19.55a35.65,35.65,0,0,1-6.31,20.87q-6.32,9.06-18,14t-27.18,5Q739.32,2000,726.19,1995.42Z"/>
        <path d="M864.75,1998.37v-145h89.39v10.79h-77v55h72.89v11.19H877.17v57.22h77v10.79Z"/>
        <path d="M1012.36,1998.37v-145H1025v134h74.93v11Z"/>
        <path d="M1150.42,1998.37v-145H1163v134H1238v11Z"/>
        <path d="M1288.46,1998.37v-145h12.63v145Z"/>
        <path d="M1468.87,1853.4h11.8v145h-9.77l-92-123.59v123.59h-11.81v-145h10L1468.87,1977Z"/>
        <path d="M1658.63,1924.05v66.18q-7.94,4.27-21.79,7A143,143,0,0,1,1609,2000q-21.18,0-36.45-8.86a57.59,57.59,0,0,1-23.31-25.55q-8.06-16.69-8-39.91,0-23,8-39.71a57.4,57.4,0,0,1,23.11-25.45q15.06-8.74,35.63-8.75,30.75,0,49.27,18.94l-5.29,10a70.69,70.69,0,0,0-20.87-13.54,62.57,62.57,0,0,0-23.31-4.18q-25.67,0-39.61,16.29t-13.94,46.43q0,30.75,14.15,47t40.82,16.29a105.66,105.66,0,0,0,38.08-6.71v-47.45H1609v-10.79Z"/>
    </g>
    <g class="sun">
        <path class="sun-1" d="M829.89,1194.59c-288.45,0-523.13-234.67-523.13-523.12S541.44,148.35,829.89,148.35,1353,383,1353,671.47,1118.34,1194.59,829.89,1194.59Zm0-1041C544.31,153.55,312,385.89,312,671.47s232.34,517.92,517.92,517.92S1347.8,957.05,1347.8,671.47,1115.47,153.55,829.89,153.55Z"/>
        <path class="sun-1" d="M829.89,1090.49c-231,0-419-188-419-419s188-419,419-419,419,188,419,419S1060.93,1090.49,829.89,1090.49Zm0-832.83c-228.18,0-413.82,185.63-413.82,413.81s185.64,413.81,413.82,413.81S1243.7,899.65,1243.7,671.47,1058.07,257.66,829.89,257.66Z"/>
        <path class="sun-2" d="M895,1046.24c-231.05,0-419-188-419-419s188-419,419-419,419,188,419,419S1126,1046.24,895,1046.24Zm0-832.83c-228.18,0-413.81,185.64-413.81,413.82S666.77,1041,895,1041s413.81-185.63,413.81-413.81S1123.13,213.41,895,213.41Z"/>
        <path class="sun-3" d="M848.1,1035.83c-231,0-419-188-419-419s188-419,419-419,419,188,419,419S1079.15,1035.83,848.1,1035.83Zm0-832.83c-228.18,0-413.81,185.64-413.81,413.82s185.63,413.81,413.81,413.81S1261.92,845,1261.92,616.82,1076.28,203,848.1,203Z"/>
        <path class="sun-2" d="M837.69,1072.27c-231,0-419-188-419-419s188-419,419-419,419,188,419,419S1068.74,1072.27,837.69,1072.27Zm0-832.83c-228.18,0-413.81,185.63-413.81,413.81s185.63,413.81,413.81,413.81,413.82-185.63,413.82-413.81S1065.87,239.44,837.69,239.44Z"/>
        <path class="sun-2" d="M785.64,1093.09c-231,0-419-188-419-419s188-419,419-419,419,188,419,419S1016.69,1093.09,785.64,1093.09Zm0-832.83c-228.18,0-413.81,185.64-413.81,413.81s185.63,413.82,413.81,413.82,413.82-185.64,413.82-413.82S1013.82,260.26,785.64,260.26Z"/>
        <path class="sun-1" d="M822.08,1015c-202.35,0-367-164.62-367-367s164.62-367,367-367,367,164.62,367,367S1024.43,1015,822.08,1015Zm0-728.72c-199.48,0-361.76,162.28-361.76,361.76s162.28,361.76,361.76,361.76,361.76-162.29,361.76-361.76S1021.55,286.29,822.08,286.29Z"/>
        <path class="sun-2" d="M785.64,1223.22c-288.45,0-523.12-234.67-523.12-523.12S497.19,177,785.64,177s523.12,234.67,523.12,523.12S1074.09,1223.22,785.64,1223.22Zm0-1041c-285.58,0-517.91,232.34-517.91,517.92S500.06,1218,785.64,1218s517.92-232.34,517.92-517.92S1071.22,182.18,785.64,182.18Z"/>
        <path class="sun-3" d="M842.9,1244c-288.45,0-523.12-234.67-523.12-523.12S554.45,197.8,842.9,197.8,1366,432.47,1366,720.92,1131.35,1244,842.9,1244Zm0-1041C557.32,203,325,435.34,325,720.92s232.34,517.92,517.92,517.92,517.92-232.34,517.92-517.92S1128.48,203,842.9,203Z"/>
        <path class="sun-3" d="M811.67,1139.94c-288.45,0-523.12-234.67-523.12-523.12S523.22,93.69,811.67,93.69s523.12,234.67,523.12,523.13S1100.12,1139.94,811.67,1139.94Zm0-1041c-285.58,0-517.92,232.34-517.92,517.92s232.34,517.91,517.92,517.91,517.91-232.34,517.91-517.91S1097.25,98.9,811.67,98.9Z"/>
        <path class="sun-1" d="M816.87,1166c-288.45,0-523.12-234.67-523.12-523.12S528.42,119.72,816.87,119.72,1340,354.39,1340,642.84,1105.32,1166,816.87,1166Zm0-1041C531.29,124.92,299,357.26,299,642.84s232.33,517.92,517.91,517.92,517.92-232.34,517.92-517.92S1102.45,124.92,816.87,124.92Z"/>
        <path class="sun-1" d="M889.75,1212.81c-288.46,0-523.13-234.67-523.13-523.12S601.29,166.57,889.75,166.57s523.12,234.67,523.12,523.12S1178.2,1212.81,889.75,1212.81Zm0-1041c-285.58,0-517.92,232.34-517.92,517.92s232.34,517.92,517.92,517.92,517.91-232.34,517.91-517.92S1175.33,171.77,889.75,171.77Z"/>
        <path class="sun-2" d="M868.93,1171.17c-288.46,0-523.13-234.67-523.13-523.12S580.47,124.92,868.93,124.92s523.12,234.68,523.12,523.13S1157.38,1171.17,868.93,1171.17Zm0-1041C583.35,130.13,351,362.47,351,648.05S583.35,1166,868.93,1166s517.91-232.33,517.91-517.91S1154.5,130.13,868.93,130.13Z"/>
    </g>
    <g class="satellite">
        <circle cx="507.16" cy="114.51" r="31.23"/>
        <circle cx="1464.92" cy="780.78" r="26.03"/>
        <circle cx="1225.48" cy="1155.55" r="18.22"/>
        <circle cx="418.68" cy="1145.14" r="20.82"/>
        <circle cx="215.67" cy="749.55" r="15.62"/>
        <circle cx="246.9" cy="1035.83" r="10.41"/>
        <circle cx="1438.89" cy="1041.04" r="10.41"/>
        <circle cx="991.25" cy="67.67" r="18.22"/>
        <circle cx="764.82" cy="13.01" r="13.01"/>
    </g>
</svg>
