<svg xmlns="http://www.w3.org/2000/svg" viewBox="0 0 1290 1244">
    <defs>
        <style>
            .satellite { fill:#f59c00 }
            .sun-1 { fill:#fbbc3d }
            .sun-2 { fill:#fbc36a }
            .sun-3 { fill:#f9b03d }
        </style>
    </defs>
    <g class="sun">
        <path class="sun-1" d="M629.83,1194.59c-288.45,0-523.12-234.67-523.12-523.12S341.38,148.35,629.83,148.35,1153,383,1153,671.47,918.28,1194.59,629.83,1194.59Zm0-1041c-285.58,0-517.92,232.34-517.92,517.92s232.34,517.92,517.92,517.92,517.92-232.34,517.92-517.92S915.41,153.55,629.83,153.55Z"/>
        <path class="sun-1" d="M629.83,1090.49c-231.05,0-419-188-419-419s188-419,419-419,419,188,419,419S860.88,1090.49,629.83,1090.49Zm0-832.83C401.65,257.66,216,443.29,216,671.47s185.63,413.81,413.81,413.81,413.81-185.63,413.81-413.81S858,257.66,629.83,257.66Z"/>
        <path class="sun-2" d="M694.89,1046.24c-231,0-419-188-419-419s188-419,419-419,419,188,419,419S925.94,1046.24,694.89,1046.24Zm0-832.83c-228.18,0-413.81,185.64-413.81,413.82S466.71,1041,694.89,1041s413.82-185.63,413.82-413.81S923.07,213.41,694.89,213.41Z"/>
        <path class="sun-3" d="M648.05,1035.83c-231,0-419-188-419-419s188-419,419-419,419,188,419,419S879.09,1035.83,648.05,1035.83Zm0-832.83c-228.18,0-413.82,185.64-413.82,413.82s185.64,413.81,413.82,413.81S1061.86,845,1061.86,616.82,876.23,203,648.05,203Z"/>
        <path class="sun-2" d="M637.64,1072.27c-231,0-419-188-419-419s188-419,419-419,419,188,419,419S868.68,1072.27,637.64,1072.27Zm0-832.83c-228.18,0-413.82,185.63-413.82,413.81s185.64,413.81,413.82,413.81,413.81-185.63,413.81-413.81S865.82,239.44,637.64,239.44Z"/>
        <path class="sun-2" d="M585.58,1093.09c-231,0-419-188-419-419s188-419,419-419,419,188,419,419S816.63,1093.09,585.58,1093.09Zm0-832.83c-228.18,0-413.81,185.64-413.81,413.81s185.63,413.82,413.81,413.82S999.4,902.25,999.4,674.07,813.76,260.26,585.58,260.26Z"/>
        <path class="sun-1" d="M622,1015c-202.35,0-367-164.62-367-367s164.62-367,367-367,367,164.62,367,367S824.37,1015,622,1015Zm0-728.72c-199.47,0-361.76,162.28-361.76,361.76S422.55,1009.81,622,1009.81,983.78,847.52,983.78,648.05,821.5,286.29,622,286.29Z"/>
        <path class="sun-2" d="M585.58,1223.22c-288.45,0-523.12-234.67-523.12-523.12S297.13,177,585.58,177s523.13,234.67,523.13,523.12S874,1223.22,585.58,1223.22Zm0-1041C300,182.18,67.67,414.52,67.67,700.1S300,1218,585.58,1218,1103.5,985.68,1103.5,700.1,871.16,182.18,585.58,182.18Z"/>
        <path class="sun-3" d="M642.84,1244c-288.45,0-523.12-234.67-523.12-523.12S354.39,197.8,642.84,197.8,1166,432.47,1166,720.92,931.29,1244,642.84,1244Zm0-1041c-285.58,0-517.92,232.34-517.92,517.92s232.34,517.92,517.92,517.92,517.92-232.34,517.92-517.92S928.42,203,642.84,203Z"/>
        <path class="sun-3" d="M611.61,1139.94c-288.45,0-523.12-234.67-523.12-523.12S323.16,93.69,611.61,93.69s523.12,234.67,523.12,523.13S900.06,1139.94,611.61,1139.94Zm0-1041C326,98.9,93.69,331.24,93.69,616.82S326,1134.73,611.61,1134.73s517.92-232.34,517.92-517.91S897.19,98.9,611.61,98.9Z"/>
        <path class="sun-1" d="M616.82,1166C328.36,1166,93.69,931.29,93.69,642.84S328.36,119.72,616.82,119.72s523.12,234.67,523.12,523.12S905.27,1166,616.82,1166Zm0-1041C331.24,124.92,98.9,357.26,98.9,642.84s232.34,517.92,517.92,517.92,517.91-232.34,517.91-517.92S902.39,124.92,616.82,124.92Z"/>
        <path class="sun-1" d="M689.69,1212.81c-288.45,0-523.12-234.67-523.12-523.12S401.24,166.57,689.69,166.57s523.12,234.67,523.12,523.12S978.14,1212.81,689.69,1212.81Zm0-1041c-285.58,0-517.92,232.34-517.92,517.92s232.34,517.92,517.92,517.92,517.92-232.34,517.92-517.92S975.27,171.77,689.69,171.77Z"/>
        <path class="sun-2" d="M668.87,1171.17c-288.45,0-523.12-234.67-523.12-523.12S380.42,124.92,668.87,124.92,1192,359.6,1192,648.05,957.32,1171.17,668.87,1171.17Zm0-1041C383.29,130.13,151,362.47,151,648.05S383.29,1166,668.87,1166s517.91-232.33,517.91-517.91S954.45,130.13,668.87,130.13Z"/>
    </g>
    <g class="satellite">
        <circle class="cls-4" cx="307.11" cy="114.51" r="31.23"/>
        <circle class="cls-4" cx="1264.86" cy="780.78" r="26.03"/>
        <circle class="cls-4" cx="1025.42" cy="1155.55" r="18.22"/>
        <circle class="cls-4" cx="218.62" cy="1145.14" r="20.82"/>
        <circle class="cls-4" cx="15.62" cy="749.55" r="15.62"/>
        <circle class="cls-4" cx="46.85" cy="1035.83" r="10.41"/>
        <circle class="cls-4" cx="1238.84" cy="1041.04" r="10.41"/>
        <circle class="cls-4" cx="791.19" cy="67.67" r="18.22"/>
        <circle class="cls-4" cx="564.76" cy="13.01" r="13.01"/>
    </g>
</svg>
